<svg width="968" height="775" viewBox="0 0 968 775" fill="none" xmlns="http://www.w3.org/2000/svg">
<path d="M759.201 77.3494C843.116 107.901 935.423 154.663 959.952 223.872C984.481 293.08 941.878 384.735 901.211 467.66C860.545 551.209 821.815 626.029 759.847 669.051C697.879 712.072 612.027 723.295 511.329 743.247C410.631 763.199 294.441 791.88 193.098 761.329C91.1087 730.777 3.32069 640.993 0.0931861 544.974C-3.13431 448.955 78.1987 346.701 131.775 249.435C184.706 152.793 209.235 61.1384 269.912 23.7284C331.235 -14.3051 428.705 1.28241 514.557 16.2464C601.054 31.8339 675.932 46.1744 759.201 77.3494Z" fill="#F1F3FF"/>
</svg>
